<?xml version="1.0" encoding="utf-8"?>
<!-- Generator: Adobe Illustrator 19.0.0, SVG Export Plug-In . SVG Version: 6.00 Build 0)  -->
<svg version="1.1" id="Layer_1" xmlns="http://www.w3.org/2000/svg" xmlns:xlink="http://www.w3.org/1999/xlink" x="0px" y="0px"
	 viewBox="0 0 1920 1080" style="enable-background:new 0 0 1920 1080;" xml:space="preserve">
<style type="text/css">
	.st0{clip-path:url(#SVGID_2_);fill:#3A3A3A;}
	.st1{clip-path:url(#SVGID_2_);fill:#FA1414;}
</style>
<g>
	<defs>
		<rect id="SVGID_1_" width="1920" height="1080"/>
	</defs>
	<clipPath id="SVGID_2_">
		<use xlink:href="#SVGID_1_"  style="overflow:visible;"/>
	</clipPath>
	<path class="st0" d="M303.6,516.3v128.7c0,0-7.1,6.8-30.1,9.6c-5.9,0.7-12.9,1.2-21.1,1.2c-10.3,0-19-1-26.3-2.8
		c-21-5.1-30.1-17-30.1-32.2V516.3H226v94.7c0,0,1.4,31.9,47.4,18.9V516.3H303.6z"/>
	<path class="st0" d="M1182,516.3v128.7c0,0-7.1,6.8-30.1,9.6c-5.9,0.7-12.9,1.2-21.1,1.2c-10.3,0-19-1-26.3-2.8
		c-21-5.1-30.1-17-30.1-32.2V516.3h30.1v94.7c0,0,1.4,31.9,47.4,18.9V516.3H1182z"/>
	<path class="st0" d="M654.5,655.8V527.1c0,0,7.1-6.8,30.1-9.7c5.9-0.7,12.9-1.2,21.1-1.2c10.3,0,19,1,26.3,2.8
		c21,5.1,30.1,17,30.1,32.2v104.5h-30.1v-94.7c0,0-1.4-31.9-47.4-18.9v113.5H654.5z"/>
	<polygon class="st0" points="125.8,479.8 125.8,552 68.5,552 68.5,479.8 38.4,479.8 38.4,651.8 68.5,651.8 68.5,572.6 125.8,572.6 
		125.8,651.8 155.9,651.8 155.9,479.8 	"/>
	<path class="st0" d="M402.2,535.6v-19.3h-24.4v-36.4h-30.1v36.4h-23.4v19.3h23.4V624c0,24.1,13.1,31.7,28.6,31.7s22.9-5.4,22.9-5.4
		v-17.9c-8,2-13,1.8-16.2,0.6c-4.8-1.9-5.1-9-5.1-9v-88.4H402.2z"/>
	<path class="st0" d="M489.3,535.6v-19.3h-24.4v-36.4h-30.1v36.4h-23.4v19.3h23.4V624c0,24.1,13.1,31.7,28.6,31.7s22.9-5.4,22.9-5.4
		v-17.9c-8,2-13,1.8-16.2,0.6c-4.8-1.9-5.1-9-5.1-9v-88.4H489.3z"/>
	<path class="st0" d="M906.7,607.2v-58.2c0,0-1.3-22.2-22.6-32.8c-6.7-3.3-15.3-5.5-26.5-5.5c-12.1,0-21.4,2.4-28.4,5.9v-49h-30.1
		v177.3c0,0,7.1,6.8,30.1,9.7c5.9,0.7,12.9,1.2,21.1,1.2c4.8,0,9.3-0.2,13.4-0.6C865.1,654.9,903.9,646.9,906.7,607.2 M829.2,629.8
		v-88.3c0,0,4.1-11.1,20.4-11.1s27,12.8,27,29.9v50.7C876.6,610.9,875.2,642.8,829.2,629.8"/>
	<path class="st0" d="M1582,607.2v-58.2c0,0-1.3-22.2-22.6-32.8c-6.7-3.3-15.3-5.5-26.5-5.5c-12.1,0-21.4,2.4-28.4,5.9v-49h-30.1
		v177.3c0,0,7.1,6.8,30.1,9.7c5.9,0.7,12.9,1.2,21.1,1.2c4.8,0,9.3-0.2,13.4-0.6C1540.4,654.9,1579.2,646.9,1582,607.2
		 M1504.5,629.8v-88.3c0,0,4.1-11.1,20.4-11.1s27,12.8,27,29.9v50.7C1551.9,610.9,1550.5,642.8,1504.5,629.8"/>
	<path class="st0" d="M611.8,592.8c5.9,0,10.7-4.8,10.7-10.7v-26.6c0-23-18.6-41.6-41.6-41.6h-22.7c-26.1,0-47.3,21.2-47.3,47.3
		v36.4c0,32.1,26,58.1,58.1,58.1h11.2c23.9,0,39.8-12.8,39.8-12.8l-10.5-20.6c0,0-16.3,14.6-41,10.3c-24.7-4.3-27.8-30.5-27.8-30.5
		v-9.3H611.8z M540.3,573.6v-11.8c0-17.1,13.8-30.9,30.9-30.9c13,0,23.5,10.5,23.5,23.5v19.2H540.3z"/>
	<path class="st0" d="M1716.9,592.8c5.9,0,10.7-4.8,10.7-10.7v-26.6c0-23-18.6-41.6-41.6-41.6h-22.7c-26.1,0-47.3,21.2-47.3,47.3
		v36.4c0,32.1,26,58.1,58.1,58.1h11.2c23.9,0,39.8-12.8,39.8-12.8l-10.5-20.6c0,0-16.3,14.6-41,10.3c-24.7-4.3-27.8-30.5-27.8-30.5
		v-9.3H1716.9z M1645.4,573.6v-11.8c0-17.1,13.8-30.9,30.9-30.9c13,0,23.5,10.5,23.5,23.5v19.2H1645.4z"/>
	<path class="st0" d="M1760.1,524v131.7h30.6V543c0-1.4,0.5-2.8,1.3-3.9c3.5-4.4,14.1-13.8,36.6-2.4l5.2-25.4c0,0-41.3-7.5-70.6,7.7
		C1761.3,520,1760.1,521.9,1760.1,524"/>
	<rect x="1850.1" y="513.9" class="st0" width="31.6" height="141.8"/>
	<rect x="1850.1" y="464.5" class="st0" width="31.6" height="30.3"/>
	<rect x="1215.4" y="561.7" class="st0" width="67.6" height="26.6"/>
	<path class="st0" d="M1387.4,479.4H1361c-52.8,0-51.5,65.2-51.5,65.2v37.1c0,72.9,49.9,74.1,49.9,74.1h29.7c0,0,49.9-1.2,49.9-74.1
		v-37.1C1438.9,544.6,1440.2,479.4,1387.4,479.4 M1408.4,589.7c0,0-2,43.2-23.9,43.2h-20.6c-22,0-23.9-43.2-23.9-43.2v-43.8
		c0-45.2,26.4-46.3,26.4-46.3h15.7c0,0,26.4,1.1,26.4,46.3V589.7z"/>
	<path class="st0" d="M1013.3,513.4c-24.5-9.5-61.2,2.8-61.2,2.8V538c0,0,26.4-9.7,38.4-6c12,3.7,20.5,13.2,20.5,16.3v21
		c-8.7,0.3-22.2,1.3-39.7,3.8c-32,4.5-34.2,33.2-34.2,33.2v16.1c0,29.7,38.4,33.4,38.4,33.4h28.3c26.6,0,34.2-10.7,34.2-10.7v-96.8
		C1037.8,548.3,1037.8,522.9,1013.3,513.4 M1010.9,630.8c-11.1,7.2-18.5,4.9-30.8,4.9c-13.4,0-12.6-15.1-12.6-15.1V606
		c0-16.9,22.3-17.1,22.3-17.1h21.1V630.8z"/>
	<polygon class="st1" points="184.2,494.8 221.3,494.8 248.9,424.2 221.3,424.2 	"/>
	<polygon class="st0" points="321.8,494.8 284.7,494.8 257.1,424.2 284.7,424.2 	"/>
</g>
</svg>
