<svg id="Ebene_1" data-name="Ebene 1" xmlns="http://www.w3.org/2000/svg" viewBox="0 0 141.74 22.82"><defs><style>.cls-1{fill:#e63312;}.cls-2{fill:#1d1d1b;fill-rule:evenodd;}</style></defs><title>Stadt_Logho</title><path class="cls-1" d="M340.95,280.69c3.88,7.44,7.8,15.16,11.55,22.63h-6C344.3,298.73,335,280.68,335,280.68s4,0,5.94,0Z" transform="translate(-228.3 -280.68)"/><path class="cls-1" d="M332.53,297.87l2.73,5.43h-5.87c-3.82-7.47-7.84-15-11.53-22.62h5.82s8.59,16.61,8.86,17.18" transform="translate(-228.3 -280.68)"/><path class="cls-1" d="M367.3,297.87l2.73,5.43h-5.87c-3.82-7.47-7.85-15-11.53-22.62h5.82s8.59,16.61,8.86,17.18" transform="translate(-228.3 -280.68)"/><path class="cls-1" d="M335.74,287.17c0-.07.1-.16.06-.19a.33.33,0,0,0-.16,0,.12.12,0,0,0-.07.06c-.4.59.43.95.73,1.38a.41.41,0,0,1,.05.22.07.07,0,0,0,.08.07.22.22,0,0,0,.15-.21c-.09-.42-.58-.63-.81-1a.39.39,0,0,1,0-.35Z" transform="translate(-228.3 -280.68)"/><path class="cls-1" d="M337.61,288.4c-.12,0-.13-.16-.11-.28s.12-.2.21-.11.17.14.15.23a.25.25,0,0,1-.25.17Zm-.72-1.25s-.05,0-.07.07c-.14.27-.4.48-.34.79s.27.32.34.39,0,0,0,.08a.65.65,0,0,1-.45.4c-.2,0-.2-.36-.36-.29s-.43.47-.26.56a3.12,3.12,0,0,0,1.09.45c.67.13.91-.73,1.15-1.19,0-.09.21-.12.19-.2-.13-.62-.77-.82-1.32-1.07Z" transform="translate(-228.3 -280.68)"/><path class="cls-1" d="M340.38,296.56a.92.92,0,0,1-.45.35c-.87.31-1.71-1-2.08-1.84-.45-1-.91-2-1.29-3,.25-.18.44-.39.71-.58a2,2,0,0,0,.85,2,21.74,21.74,0,0,1,2.18,2,.88.88,0,0,1,.1,1.08Zm-4.18-5.34c0-.08-.09-.17,0-.25s.1-.09.12,0a.49.49,0,0,0,.3.38c-.08.19-.3,0-.37-.09Zm-.21-1c0-.1-.08-.2.11-.27a.78.78,0,0,0,.22.46.17.17,0,0,1-.1,0,.34.34,0,0,1-.23-.24Zm-.3,1.62a.36.36,0,0,1-.09-.48s.07,0,.07,0a1.11,1.11,0,0,0,.24.45c.06.1-.14.11-.23,0Zm-.28-.9a.3.3,0,0,1-.12-.34s.1-.09.12,0,.11.31.28.34c0,.15-.17.12-.28,0Zm-.38,1.32a.37.37,0,0,1-.09-.39.06.06,0,0,1,.06,0c.13,0,.13.17.18.27s.07.06.12.14-.19.07-.26,0Zm-.35-.86a.61.61,0,0,1-.1-.22c0-.06.11-.19.14-.12s.1.29.28.38c-.07.17-.24.11-.32,0Zm-.36,1.16c0-.1,0-.31.13-.25s0,.14.09.22.13.16.13.2c0,.24-.31,0-.34-.17Zm-.27-1s.08-.06.09,0a1.17,1.17,0,0,0,.1.19c.05.09.22.1.17.23a.1.1,0,0,1-.09,0,.34.34,0,0,1-.27-.45Zm-.3-.82a.12.12,0,0,1,.16-.13s.07.21.09.24,0,.11.15.15a.14.14,0,0,1-.25,0,1,1,0,0,1-.16-.32Zm.63-.49s0-.1.1-.1.05.12.07.17.19.16.17.3-.05,0-.09,0a.1.1,0,0,1-.08,0,.41.41,0,0,1-.17-.39Zm.63-.41s.11-.08.12,0a1.06,1.06,0,0,0,.24.41c0,.05-.16.13-.23,0s-.21-.26-.12-.41Zm1.94.4c.07,0,.15.28.36.36,0,0,0,.12-.09.12a.39.39,0,0,1-.32-.23c-.09-.13,0-.27.05-.25Zm4.24,5.33c-.6-1.42-2.09-2-3.11-3.14a.73.73,0,0,1-.14-.87.56.56,0,0,1,.52-.27,1,1,0,0,1,.79.7.18.18,0,0,0-.2.08.36.36,0,0,0,0,.46.45.45,0,0,0,.65.05.75.75,0,0,0,.14-.79,1.5,1.5,0,0,0-2.11-1,12.89,12.89,0,0,1,.62-1.51c0-.09.2-.11.28-.19a.42.42,0,0,0-.13-.63c-.11-.05-.24,0-.29,0-.25.5-.4,1.08-1,1.29s-1.18-.37-1.81-.5c-.44-.09-.77.19-1.16.32-.39-.93-.71-1.89-1.19-2.78a4.34,4.34,0,0,0-.43-.79,2.21,2.21,0,0,0-.44-.45c-.15-.11-.46-.25-.62,0,.22.11.5.27.47.54,0,.07-.05.12-.15.06a1.28,1.28,0,0,0-.47-.4c-.11,0-.26-.09-.36,0s-.12.24,0,.3.3,0,.43.11a.58.58,0,0,1,.32.47s-.08.13-.11.1-.13-.2-.23-.29-.33-.22-.48-.06.12.81.4,1.09a1,1,0,0,0,.61.25c.09.71.27,1.43.42,2.13-.24-.22-.44-.44-.66-.64l-.65-.61a3.84,3.84,0,0,0-.76-.61,1.13,1.13,0,0,0-.81-.18c-.1,0-.27.13-.21.16s.46.13.64.29.1.34,0,.26c-.3-.23-1-.54-1,.08,0,.09.15,0,.3,0a.85.85,0,0,1,.44.15c.08.06.18.1.2.22s-.06.15-.11.13-.31-.25-.51-.24-.3.12-.25.26c.2.54.91,1,1.47.75.74.86,1.43,1.77,2.25,2.57.18.18.53-.08.8-.16a.66.66,0,0,0,0,.47c.38.9,1.33,1.34,1.95,2.05a2.16,2.16,0,0,0-1-.14.59.59,0,0,0-.53.6,12.92,12.92,0,0,0-1.42-2.08c-.22-.24-.59-.63-1-.28,0,0,0,.06,0,.07.22.08.45.17.53.42,0,.09,0,.19-.08.15-.22-.15-.38-.41-.7-.34s-.28.31-.12.41.3.07.44.14.36.21.32.44c0,0-.06.09-.1.07s-.41-.54-.7-.32.1.62.31.84a.78.78,0,0,0,.87.28c.41.87.84,1.72,1.24,2.59.65-.42,1.35-1.16,2.2-.83,0,.67-.48,1.28-.25,2s.9.84,1.46,1.05c-.23.75-.61,1.42-.83,2.18a.8.8,0,0,0,.38,1c0-.41-.12-.58.1-.84.07-.08.21,0,.18.07a1,1,0,0,0,0,.69.4.4,0,0,0,.37.27.26.26,0,0,0,.2-.22c0-.17-.14-.2-.18-.35a.65.65,0,0,1,0-.49.25.25,0,0,1,.19-.14s.05,0,.06,0-.08.24-.07.37.13.4.29.33c.41-.18.44-.71.44-1.13a.37.37,0,0,0-.32-.39c.34-.61.77-1.16,1.09-1.79-.56-.35-1.37-.66-1.41-1.38a1.68,1.68,0,0,1,.37-1.22,3.16,3.16,0,0,0,1.33.76,1.7,1.7,0,0,0,1.64-.51,1.52,1.52,0,0,0,.27-1.59Z" transform="translate(-228.3 -280.68)"/><path class="cls-1" d="M350.71,282.4c0-.07.1-.16.06-.19a.3.3,0,0,0-.16,0,.12.12,0,0,0-.07.06c-.4.59.43,1,.73,1.38a.42.42,0,0,1,.05.22.07.07,0,0,0,.08.07.22.22,0,0,0,.15-.21c-.09-.42-.58-.63-.81-1a.39.39,0,0,1,0-.35Z" transform="translate(-228.3 -280.68)"/><path class="cls-1" d="M352.58,283.63c-.12,0-.13-.16-.11-.28s.12-.2.21-.11.17.14.15.23a.25.25,0,0,1-.25.17Zm-.72-1.25s-.06,0-.07.07c-.14.27-.4.48-.34.79s.27.31.33.39,0,0,0,.09a.66.66,0,0,1-.45.4c-.2,0-.2-.36-.36-.29s-.43.47-.26.56a3.12,3.12,0,0,0,1.09.45c.67.13.91-.73,1.15-1.19,0-.09.21-.12.19-.2-.13-.62-.77-.82-1.32-1.08Z" transform="translate(-228.3 -280.68)"/><path class="cls-1" d="M355.35,291.79a.92.92,0,0,1-.45.35c-.88.31-1.71-1-2.09-1.84-.45-1-.91-2-1.29-3,.25-.18.44-.39.71-.58a2,2,0,0,0,.85,2,21.78,21.78,0,0,1,2.18,2,.88.88,0,0,1,.09,1.08Zm-4.18-5.33c0-.08-.09-.17,0-.25s.1-.09.12,0a.49.49,0,0,0,.3.38c-.08.19-.3,0-.37-.09Zm-.21-1c0-.1-.08-.2.12-.27a.77.77,0,0,0,.22.46.18.18,0,0,1-.1,0,.34.34,0,0,1-.23-.24Zm-.3,1.62a.36.36,0,0,1-.09-.48s.07,0,.07,0a1.15,1.15,0,0,0,.25.45c.06.1-.14.12-.23,0Zm-.28-.9a.3.3,0,0,1-.12-.33s.1-.09.12,0,.11.31.28.34c0,.15-.17.12-.28,0Zm-.38,1.32a.38.38,0,0,1-.09-.39.06.06,0,0,1,.06,0c.13,0,.13.17.18.27s.07.06.12.14-.2.07-.26,0Zm-.35-.87a.67.67,0,0,1-.11-.22c0-.06.11-.19.14-.12s.1.29.28.38c-.07.17-.24.11-.31,0Zm-.36,1.16c0-.1,0-.31.13-.25s0,.14.09.22.13.16.12.2c0,.24-.31,0-.34-.17Zm-.27-1s.08-.06.09,0a1.16,1.16,0,0,0,.1.19c.05.09.22.1.17.23a.1.1,0,0,1-.09,0,.34.34,0,0,1-.28-.45Zm-.31-.82a.12.12,0,0,1,.17-.13s.07.21.09.25.05.1.16.15a.14.14,0,0,1-.25,0,1,1,0,0,1-.16-.32Zm.63-.49s0-.1.1-.1.05.12.07.17.19.16.17.3-.05,0-.09,0a.1.1,0,0,1-.08,0,.41.41,0,0,1-.17-.39Zm.63-.41s.11-.08.12,0a1.06,1.06,0,0,0,.24.41c0,.05-.16.13-.24,0s-.2-.26-.12-.41Zm1.94.4c.07,0,.15.28.36.36,0,0,0,.12-.09.12a.39.39,0,0,1-.32-.23c-.09-.14,0-.27,0-.25Zm4.24,5.33c-.59-1.42-2.09-2-3.11-3.14a.73.73,0,0,1-.14-.87.56.56,0,0,1,.52-.27,1,1,0,0,1,.79.7.17.17,0,0,0-.2.08.36.36,0,0,0,0,.46.45.45,0,0,0,.65.05.75.75,0,0,0,.14-.79,1.5,1.5,0,0,0-2.11-1,12.16,12.16,0,0,1,.62-1.51c0-.09.2-.11.28-.19a.42.42,0,0,0-.13-.63c-.11-.05-.24,0-.28,0-.25.5-.4,1.09-1,1.29s-1.18-.37-1.8-.5c-.44-.09-.77.19-1.17.32-.39-.93-.71-1.89-1.18-2.78a4.44,4.44,0,0,0-.43-.79,2.2,2.2,0,0,0-.44-.45c-.15-.11-.46-.25-.62,0,.22.11.5.27.47.53,0,.07-.05.13-.15.07a1.26,1.26,0,0,0-.47-.4c-.11,0-.26-.09-.36,0s-.12.24,0,.3.3,0,.43.11a.58.58,0,0,1,.32.47s-.08.13-.11.1-.13-.2-.23-.3-.33-.22-.48-.06.11.81.4,1.09a1,1,0,0,0,.61.25c.09.71.28,1.43.42,2.13-.24-.22-.44-.44-.66-.64l-.65-.61a3.69,3.69,0,0,0-.76-.61,1.13,1.13,0,0,0-.81-.19c-.1,0-.27.13-.21.17s.46.13.64.29.1.34,0,.26c-.3-.23-1-.54-1,.08,0,.09.15,0,.3,0a.86.86,0,0,1,.44.15c.08.06.18.11.19.22s-.06.15-.11.13-.31-.25-.51-.24-.3.12-.25.26c.2.54.91,1,1.47.75.75.86,1.42,1.77,2.25,2.57.18.17.53-.08.8-.16a.67.67,0,0,0,0,.47c.38.9,1.33,1.34,2,2.05a2.16,2.16,0,0,0-1-.14.59.59,0,0,0-.53.6,13.18,13.18,0,0,0-1.42-2.08c-.22-.24-.59-.63-1-.28,0,0,0,.06,0,.07.22.08.45.17.52.42,0,.09,0,.19-.08.15-.22-.15-.38-.41-.7-.34s-.29.31-.12.41.3.07.44.13.36.21.32.44c0,0-.06.09-.1.07s-.42-.54-.7-.32.1.62.31.84a.78.78,0,0,0,.87.28c.41.87.83,1.72,1.24,2.59.65-.42,1.35-1.16,2.2-.83,0,.67-.48,1.28-.25,2s.9.84,1.46,1.05c-.23.75-.61,1.42-.83,2.18a.8.8,0,0,0,.38,1c0-.41-.12-.58.1-.84.07-.08.22,0,.19.07a.94.94,0,0,0,0,.69.4.4,0,0,0,.37.27.25.25,0,0,0,.2-.22c0-.17-.14-.2-.18-.35a.64.64,0,0,1,0-.49.25.25,0,0,1,.2-.14s.05,0,.06,0-.08.23-.07.37.13.4.29.33c.41-.18.44-.71.44-1.13a.37.37,0,0,0-.31-.39c.34-.61.77-1.16,1.09-1.79-.56-.35-1.37-.66-1.41-1.38a1.68,1.68,0,0,1,.37-1.22,3.17,3.17,0,0,0,1.33.76,1.7,1.7,0,0,0,1.64-.51,1.52,1.52,0,0,0,.27-1.59Z" transform="translate(-228.3 -280.68)"/><path class="cls-2" d="M234.37,296l-.91.29c-.32-1.08-.77-2-2-2a1.69,1.69,0,0,0-1.69,1.65c0,2.4,4.69,1.46,4.69,4.82a2.67,2.67,0,0,1-2.87,2.72,3.2,3.2,0,0,1-3.28-2.72l1-.24a2.48,2.48,0,0,0,2.31,2.13,1.8,1.8,0,0,0,1.84-1.78c0-2.67-4.69-1.56-4.69-4.79a2.61,2.61,0,0,1,2.77-2.62,3,3,0,0,1,2.86,2.51Zm3.19-1.73v2.21h1.55v.82h-1.55v4.29c0,.67,0,1.1.78,1.1a3,3,0,0,0,.77-.09v.71a2.87,2.87,0,0,1-1,.2c-1.63,0-1.55-1.1-1.55-2.35v-3.86h-1v-.82h1v-2.21Zm7.67,9h-1.05l-.1-.87a2.93,2.93,0,0,1-2,1.06,1.92,1.92,0,0,1-1.89-2c0-2,2.05-2.37,3.56-2.78l.31-.09v-.38a1.16,1.16,0,0,0-1.3-1.2,2.05,2.05,0,0,0-1.67,1.08l-.68-.51a2.81,2.81,0,0,1,2.35-1.39,2.14,2.14,0,0,1,2.26,2.13v3.39a4.16,4.16,0,0,0,.19,1.51Zm-1.15-3.84-.38.11c-.92.27-2.59.64-2.59,1.87a1.12,1.12,0,0,0,1,1.14,2.68,2.68,0,0,0,1.94-1.11v-2Zm7,1.92v-3.17a1.83,1.83,0,0,0-1.6-1.1c-1.35,0-1.63,1.86-1.63,2.88,0,2,1,2.66,1.62,2.66a2.11,2.11,0,0,0,1.61-1.27Zm0-4.21v-3.5h1v9.63h-1v-.78a2.2,2.2,0,0,1-1.74,1c-.93,0-2.5-.85-2.5-3.48s1.36-3.75,2.54-3.75a2.51,2.51,0,0,1,1.71.9Zm4.51-2.92v2.21h1.55v.82h-1.55v4.29c0,.67,0,1.1.78,1.1a3,3,0,0,0,.77-.09v.71a2.87,2.87,0,0,1-1,.2c-1.63,0-1.55-1.1-1.55-2.35v-3.86h-1v-.82h1v-2.21Zm15.38-.58-2.2,9.63h-1l-1.63-7.87h0l-1.72,7.87h-1l-2-9.63h1l1.58,7.77h0l1.73-7.77h1l1.65,7.77h0l1.69-7.77Zm2.28,2.8v6.83h-1v-6.83Zm0-2.8v1.06h-1v-1.06Zm3.08,4.43v5.2h-1v-6.83h1v.7a3,3,0,0,1,1.88-.9c1,0,1.74.53,1.74,2.31v4.71h-1v-4.47c0-.72.12-1.77-.9-1.77a2.86,2.86,0,0,0-1.76,1Zm7-3.85v2.21h1.55v.82h-1.55v4.29c0,.67,0,1.1.78,1.1a3,3,0,0,0,.77-.09v.71a2.87,2.87,0,0,1-1,.2c-1.63,0-1.55-1.1-1.55-2.35v-3.86h-1v-.82h1v-2.21Zm7.64,5.79h-4.12c0,2,.83,2.64,1.82,2.64a2.12,2.12,0,0,0,1.67-1.18l.69.46a2.61,2.61,0,0,1-2.46,1.53c-1.52,0-2.73-1.05-2.73-3.61s1.21-3.61,2.73-3.61c2,0,2.54,2.1,2.4,3.77Zm-4.09-.82h3.08c0-.88-.45-2.14-1.46-2.14s-1.61,1.18-1.62,2.14Zm6.88-2.76v1.47h0c.38-.82.88-1.57,1.89-1.57H296v.88c-1.26-.17-1.92,1.19-2.29,2.18v3.87h-1v-6.83Zm5-2.21v2.21h1.55v.82h-1.55v4.29c0,.67,0,1.1.78,1.1a3,3,0,0,0,.77-.09v.71a2.88,2.88,0,0,1-1,.2c-1.63,0-1.55-1.1-1.55-2.35v-3.86h-1v-.82h1v-2.21Zm4-.58v3.5a3,3,0,0,1,1.88-.9c1,0,1.74.53,1.74,2.31v4.71h-1v-4.47c0-.72.13-1.77-.9-1.77a2.87,2.87,0,0,0-1.76,1v5.2h-1v-9.63Zm9.09,8v-5.2h1v6.83h-1v-.71a3,3,0,0,1-1.88.9c-1,0-1.74-.53-1.74-2.31v-4.71h1v4.47c0,.72.12,1.77.9,1.77a2.87,2.87,0,0,0,1.76-1Zm4-5.2v1.47h0c.38-.82.88-1.57,1.89-1.57h.37v.88c-1.26-.17-1.92,1.19-2.29,2.18v3.87h-1v-6.83Z" transform="translate(-228.3 -280.68)"/></svg>